<svg width="82" height="68" viewBox="0 0 82 68" fill="none" xmlns="http://www.w3.org/2000/svg">
<path fill-rule="evenodd" clip-rule="evenodd" d="M30.2093 39.7098C31.1261 38.7929 32.3696 38.2778 33.6662 38.2778C34.9628 38.2778 36.2064 38.7929 37.1232 39.7098C38.04 40.6266 38.5551 41.8701 38.5551 43.1667C38.5551 44.4633 38.04 45.7068 37.1232 46.6237C36.2064 47.5405 34.9628 48.0556 33.6662 48.0556C32.3696 48.0556 31.1261 47.5405 30.2093 46.6237C29.2924 45.7068 28.7773 44.4633 28.7773 43.1667C28.7773 41.8701 29.2924 40.6266 30.2093 39.7098ZM33.6662 45.6112C34.3145 45.6112 34.9363 45.3536 35.3947 44.8952C35.8531 44.4368 36.1107 43.815 36.1107 43.1667C36.1107 42.5184 35.8531 41.8967 35.3947 41.4382C34.9363 40.9798 34.3145 40.7223 33.6662 40.7223C33.0179 40.7223 32.3962 40.9798 31.9377 41.4382C31.4793 41.8967 31.2218 42.5184 31.2218 43.1667C31.2218 43.815 31.4793 44.4368 31.9377 44.8952C32.3962 45.3536 33.0179 45.6112 33.6662 45.6112ZM48.5426 39.7098C49.4594 38.7929 50.703 38.2778 51.9996 38.2778C53.2962 38.2778 54.5397 38.7929 55.4565 39.7098C56.3734 40.6266 56.8885 41.8701 56.8885 43.1667C56.8885 44.4633 56.3734 45.7068 55.4565 46.6237C54.5397 47.5405 53.2962 48.0556 51.9996 48.0556C50.703 48.0556 49.4594 47.5405 48.5426 46.6237C47.6258 45.7068 47.1107 44.4633 47.1107 43.1667C47.1107 41.8701 47.6258 40.6266 48.5426 39.7098ZM51.9996 45.6112C52.6479 45.6112 53.2696 45.3536 53.728 44.8952C54.1865 44.4368 54.444 43.815 54.444 43.1667C54.444 42.5184 54.1865 41.8967 53.728 41.4382C53.2696 40.9798 52.6479 40.7223 51.9996 40.7223C51.3513 40.7223 50.7295 40.9798 50.2711 41.4382C49.8127 41.8967 49.5551 42.5184 49.5551 43.1667C49.5551 43.815 49.8127 44.4368 50.2711 44.8952C50.7295 45.3536 51.3513 45.6112 51.9996 45.6112Z" fill="white"/>
<path fill-rule="evenodd" clip-rule="evenodd" d="M19.6113 23.0001C19.6113 22.325 20.1585 21.7778 20.8336 21.7778H45.4002C46.0161 21.7778 46.6068 22.0225 47.0423 22.458C47.4778 22.8935 47.7224 23.4842 47.7224 24.1001V44.3889H37.4252C36.7502 44.3889 36.203 43.8417 36.203 43.1667C36.203 42.4917 36.7502 41.9445 37.4252 41.9445H45.278V24.2223H20.8336C20.1585 24.2223 19.6113 23.6751 19.6113 23.0001ZM24.5002 31.8612C25.1752 31.8612 25.7224 32.4084 25.7224 33.0834V41.9445H29.3585C30.0336 41.9445 30.5808 42.4917 30.5808 43.1667C30.5808 43.8417 30.0336 44.3889 29.3585 44.3889H25.6002C25.2953 44.3889 24.9933 44.3289 24.7115 44.2122C24.4298 44.0955 24.1738 43.9244 23.9582 43.7088C23.7425 43.4931 23.5715 43.2371 23.4548 42.9554C23.3381 42.6736 23.278 42.3717 23.278 42.0667V33.0834C23.278 32.4084 23.8252 31.8612 24.5002 31.8612Z" fill="white"/>
<path fill-rule="evenodd" clip-rule="evenodd" d="M21.4453 28.5001C21.4453 27.825 21.9925 27.2778 22.6675 27.2778H30.0009C30.6759 27.2778 31.2231 27.825 31.2231 28.5001C31.2231 29.1751 30.6759 29.7223 30.0009 29.7223H22.6675C21.9925 29.7223 21.4453 29.1751 21.4453 28.5001Z" fill="white"/>
<path fill-rule="evenodd" clip-rule="evenodd" d="M45.2773 28.5001C45.2773 27.825 45.8246 27.2778 46.4996 27.2778H56.7846C57.2334 27.2779 57.673 27.4081 58.0494 27.6527C58.4258 27.8972 58.7233 28.2456 58.9058 28.6557L62.1872 36.0397C62.1874 36.04 62.1875 36.0404 62.1877 36.0408C62.1877 36.0409 62.1876 36.0407 62.1877 36.0408C62.3193 36.3364 62.3877 36.6566 62.3885 36.9802L62.3885 36.9829L62.3885 42.0667C62.3885 42.3717 62.3284 42.6736 62.2117 42.9554C62.095 43.2371 61.9239 43.4931 61.7083 43.7088C61.4927 43.9244 61.2367 44.0955 60.9549 44.2122C60.6732 44.3289 60.3712 44.3889 60.0662 44.3889H56.5829C55.9079 44.3889 55.3607 43.8417 55.3607 43.1667C55.3607 42.4917 55.9079 41.9445 56.5829 41.9445H59.944V37.0113L56.7049 29.7223H46.4996C45.8246 29.7223 45.2773 29.1751 45.2773 28.5001ZM45.2773 43.1667C45.2773 42.4917 45.8246 41.9445 46.4996 41.9445H48.3329C49.0079 41.9445 49.5551 42.4917 49.5551 43.1667C49.5551 43.8417 49.0079 44.3889 48.3329 44.3889H46.4996C45.8246 44.3889 45.2773 43.8417 45.2773 43.1667Z" fill="white"/>
</svg>
