<svg id="Layer_1" data-name="Layer 1" xmlns="http://www.w3.org/2000/svg" viewBox="0 0 173.8 13.64"><path d="M0,13.24,5.77.12H7.9l5.77,13.12H11.24L9.91,10.11H3.72L2.38,13.24ZM4.54,8.07H9.05L6.79,2.85Z"/><path d="M29.84,13.64l-1.56-1.39a6.79,6.79,0,0,1-4,1.22,6.53,6.53,0,0,1-4.89-2,6.6,6.6,0,0,1-1.92-4.78A6.56,6.56,0,0,1,19.41,2a6.64,6.64,0,0,1,4.92-2,6.53,6.53,0,0,1,4.89,2,6.61,6.61,0,0,1,1.92,4.79,6.34,6.34,0,0,1-1.34,4L31.31,12Zm-5.51-2.27a4,4,0,0,0,2.23-.62L24.33,8.86l1.48-1.69,2.26,2a4.45,4.45,0,0,0,.67-2.47,4.65,4.65,0,0,0-1.26-3.29,4.46,4.46,0,0,0-6.37,0,4.65,4.65,0,0,0-1.26,3.29A4.61,4.61,0,0,0,21.11,10,4.18,4.18,0,0,0,24.33,11.37Z"/><path d="M42.84,13.45A5.55,5.55,0,0,1,38.77,12a5.77,5.77,0,0,1-1.48-4.27V.23h2.29v7.4a4,4,0,0,0,.88,2.75,3.57,3.57,0,0,0,4.85,0,3.79,3.79,0,0,0,.88-2.71V.23h2.3V7.61A5.87,5.87,0,0,1,47,12,5.63,5.63,0,0,1,42.84,13.45Z"/><path d="M56.07,13.25V.23h2.3v13Z"/><path d="M66.13,13.25V.23h2.29V11.17H75.3v2.08Z"/><path d="M79.29,13.24,85.06.12h2.13L93,13.24H90.54L89.2,10.11H83l-1.33,3.13Zm4.56-5.17h4.51L86.11,2.85Z"/><path d="M98.25,13.25V.23h2.45l4,6.15,4-6.15h2.45v13h-2.3V3.91L104.67,10h-.09L100.49,4v9.3Z"/><path d="M118,13.25V.23h9.7v2h-7.4V5.66h6.56v2h-6.56v3.5h7.51v2H118Z"/><path d="M134.12,13.25V.23H139a7,7,0,0,1,5,1.85A6.14,6.14,0,0,1,146,6.74,6.2,6.2,0,0,1,144,11.4a6.92,6.92,0,0,1-5,1.85Zm2.29-2.08H139a4.53,4.53,0,0,0,3.28-1.23,4.31,4.31,0,0,0,1.25-3.18,4.31,4.31,0,0,0-1.25-3.18A4.46,4.46,0,0,0,139,2.33h-2.58Z"/><path d="M152.21,13.25V.23h2.3v13Z"/><path d="M160.13,13.24,165.9.12H168l5.76,13.12h-2.42L170,10.11h-6.19l-1.33,3.13Zm4.54-5.17h4.51l-2.25-5.22Z"/></svg>