<svg id="Layer_1" data-name="Layer 1" xmlns="http://www.w3.org/2000/svg" viewBox="0 0 49 49"><path d="M26.42,24.5,37.7,13.22a1.36,1.36,0,0,0-.07-1.85,1.36,1.36,0,0,0-1.85-.07L24.5,22.58,13.22,11.28a1.37,1.37,0,0,0-1.94,1.94L22.58,24.5,11.28,35.78a1.58,1.58,0,0,0-.34.44,1.3,1.3,0,0,0-.13.54,1.28,1.28,0,0,0,.09.55,1.25,1.25,0,0,0,.31.47,1.26,1.26,0,0,0,.46.3,1.49,1.49,0,0,0,.55.1,1.44,1.44,0,0,0,.54-.14,1.22,1.22,0,0,0,.44-.34L24.5,26.42,35.78,37.7a1.36,1.36,0,0,0,1.85-.07,1.36,1.36,0,0,0,.07-1.85Z"/></svg>