<svg width="174" height="15" viewBox="0 0 174 15" fill="none" xmlns="http://www.w3.org/2000/svg">
<path d="M0 13.9246L5.76836 0.803711H7.90015L13.6685 13.9246H11.2441L9.90654 10.7848H3.72018L2.38259 13.9246H0ZM4.53527 8.74697H9.04964L6.79245 3.52771L4.53527 8.74697Z" fill="#7794A6"/>
<path d="M29.8434 14.3205L28.2759 12.9273C27.1264 13.7382 25.7888 14.1541 24.2841 14.1541C22.2986 14.1541 20.6684 13.5095 19.3935 12.1995C18.1186 10.8895 17.4707 9.30914 17.4707 7.4169C17.4707 5.56624 18.1186 3.96512 19.4144 2.6551C20.7102 1.34509 22.3404 0.679688 24.3259 0.679688C26.3113 0.679688 27.9415 1.3243 29.2164 2.63431C30.4913 3.94432 31.1392 5.52466 31.1392 7.4169C31.1392 8.91406 30.7003 10.2449 29.8016 11.4093L31.3064 12.6777L29.8434 14.3205ZM24.3259 12.0539C25.1619 12.0539 25.9142 11.846 26.5621 11.4301L24.3259 9.53787L25.8097 7.85357L28.0669 9.89137C28.5058 9.20517 28.7357 8.39421 28.7357 7.4169C28.7357 6.12768 28.3177 5.0256 27.4817 4.13147C26.6457 3.23733 25.5799 2.77987 24.2841 2.77987C23.0092 2.77987 21.9433 3.21654 21.1073 4.11067C20.2713 5.00481 19.8533 6.10688 19.8533 7.3961C19.8533 8.68532 20.2713 9.7874 21.1073 10.6815C21.9642 11.5965 23.0301 12.0539 24.3259 12.0539Z" fill="#7794A6"/>
<path d="M42.8445 14.1336C41.1098 14.1336 39.7513 13.6345 38.769 12.6572C37.7867 11.6799 37.2852 10.2659 37.2852 8.39448V0.908691H39.5841V8.3113C39.5841 9.49655 39.8767 10.4115 40.4619 11.0561C41.0471 11.7007 41.8622 12.0334 42.8863 12.0334C43.9313 12.0334 44.7255 11.7215 45.3107 11.0977C45.8959 10.4739 46.1885 9.57973 46.1885 8.39448V0.908691H48.4875V8.29051C48.4875 10.1828 47.9859 11.6383 46.9827 12.6364C45.9795 13.6345 44.6001 14.1336 42.8445 14.1336Z" fill="#7794A6"/>
<path d="M56.0742 13.9257V0.908691H58.3732V13.9257H56.0742Z" fill="#7794A6"/>
<path d="M66.125 13.9257V0.908691H68.424V11.8463H75.3V13.9257H66.125Z" fill="#7794A6"/>
<path d="M79.293 13.9246L85.0613 0.803711H87.1931L92.9615 13.9246H90.5371L89.1995 10.7848H83.0131L81.6755 13.9246H79.293ZM83.8491 8.74697H88.3635L86.1063 3.52771L83.8491 8.74697Z" fill="#7794A6"/>
<path d="M98.252 13.9257V0.908691H100.697L104.689 7.06368L108.66 0.908691H111.105V13.9257H108.806V4.5892L104.668 10.7234H104.585L100.488 4.63079V13.9257H98.252V13.9257Z" fill="#7794A6"/>
<path d="M118.043 13.9257V0.908691H127.741V2.94649H120.342V6.33589H126.905V8.37369H120.342V11.8671H127.845V13.9049H118.043V13.9257Z" fill="#7794A6"/>
<path d="M134.115 13.9257V0.908691H139.006C141.054 0.908691 142.726 1.53251 144.022 2.75935C145.318 3.98618 145.965 5.54572 145.965 7.41717C145.965 9.26783 145.318 10.8274 144.022 12.075C142.726 13.3226 141.054 13.9257 139.027 13.9257H134.115V13.9257ZM136.414 11.8463H138.985C140.343 11.8463 141.43 11.4304 142.266 10.6194C143.102 9.78767 143.52 8.72719 143.52 7.43797C143.52 6.14875 143.102 5.08826 142.266 4.2565C141.43 3.42475 140.343 3.00887 138.985 3.00887H136.414V11.8463Z" fill="#7794A6"/>
<path d="M152.215 13.9257V0.908691H154.514V13.9257H152.215Z" fill="#7794A6"/>
<path d="M160.135 13.9246L165.903 0.803711H168.035L173.803 13.9246H171.379L170.041 10.7848H163.855L162.517 13.9246H160.135ZM164.67 8.74697H169.184L166.927 3.52771L164.67 8.74697Z" fill="#7794A6"/>
</svg>
