<svg width="112" height="112" viewBox="0 0 112 112" fill="none" xmlns="http://www.w3.org/2000/svg">
<path fill-rule="evenodd" clip-rule="evenodd" d="M92.9297 91.9718V87.7315H89.2171V99.5808H92.9486V95.1756H94.2159L97.0145 99.5808H101.335L97.6882 94.1579V93.9883C97.6882 93.9883 98.9603 93.4795 99.6388 90.7704L100.402 87.7174H96.5057L95.7424 90.7704C95.6627 91.1293 95.4554 91.447 95.159 91.6645C94.8627 91.882 94.4974 91.9845 94.1311 91.953L92.9297 91.9718ZM79.5398 95.0248H83.1818C82.9274 95.9671 81.9097 96.9706 80.2136 96.9706C79.3596 96.9422 78.5359 96.6473 77.8579 96.1273L76.3314 98.5819C77.559 99.4845 79.0481 99.961 80.5716 99.9388C84.6423 99.9388 87.3514 97.225 87.3514 93.6679C87.3514 90.1108 84.6423 87.397 80.5716 87.397C79.1292 87.3858 77.7154 87.7986 76.5057 88.5843L78.0322 91.0437C78.6869 90.6146 79.4497 90.3794 80.2324 90.3652C80.8368 90.332 81.4369 90.4843 81.9523 90.8018C82.4677 91.1192 82.8736 91.5867 83.1158 92.1414H79.5587L79.5398 95.0248ZM64.7931 87.7362V90.9541H68.3502V99.5808H72.0817V90.9541H75.6388V87.7362H64.7931ZM59.7094 94.6856H57.5045L58.5222 91.6326H58.6918L59.7094 94.6856ZM56.4114 97.7339H60.8213L61.4103 99.6185H65.4809L60.9062 87.7551H56.3314L51.7424 99.5808H55.8084L56.4114 97.7339ZM45.4809 92.2262H43.7047V90.5348H45.4809C46.1594 90.5348 46.4986 90.874 46.4986 91.3782C46.4986 91.8823 46.15 92.2262 45.4715 92.2262H45.4809ZM46.2442 94.94C46.4941 94.94 46.7338 95.0393 46.9105 95.216C47.0872 95.3927 47.1865 95.6324 47.1865 95.8823C47.1865 96.1322 47.0872 96.3719 46.9105 96.5486C46.7338 96.7253 46.4941 96.8246 46.2442 96.8246H43.7047V94.94H46.2442ZM39.9639 99.5808H46.2348C49.7071 99.5808 51.3184 97.9742 51.3184 96.1932C51.3184 93.9883 48.5245 93.4795 48.5245 93.4795V93.3099C48.5245 93.3099 50.4751 92.801 50.4751 91.0248C50.4751 89.2486 48.9486 87.7268 45.4715 87.7268H39.9639V99.5808ZM38.0793 93.6491C38.0793 90.0872 35.3702 87.3782 31.4833 87.3782C27.5964 87.3782 24.8873 90.0872 24.8873 93.6491C24.8873 97.2109 27.6011 99.92 31.4833 99.92C35.3655 99.92 38.0981 97.225 38.0981 93.6679L38.0793 93.6491ZM28.7601 93.6491C28.7601 91.6137 30.0322 90.3511 31.4739 90.3511C32.9156 90.3511 34.1829 91.6185 34.1829 93.6491C34.1829 95.6797 32.9109 96.9471 31.4739 96.9471C30.0369 96.9471 28.7789 95.7033 28.7789 93.6679L28.7601 93.6491ZM16.5575 96.1932H18.6776C22.2348 96.1932 24.0157 94.4123 24.0157 91.953C24.0157 89.4936 22.2348 87.7127 18.6776 87.7127H17.6034L15.455 92.7492H16.5763V90.6291H18.6965C18.8811 90.6182 19.066 90.6451 19.2398 90.7083C19.4136 90.7714 19.5726 90.8694 19.7072 90.9963C19.8417 91.1231 19.949 91.2761 20.0222 91.4459C20.0955 91.6157 20.1333 91.7987 20.1333 91.9836C20.1333 92.1685 20.0955 92.3515 20.0222 92.5213C19.949 92.691 19.8417 92.8441 19.7072 92.9709C19.5726 93.0978 19.4136 93.1958 19.2398 93.2589C19.066 93.3221 18.8811 93.349 18.6965 93.3381H17.1888L12.8496 98.4642V99.5808H16.5763L16.5575 96.1932Z" fill="#151616"/>
<path fill-rule="evenodd" clip-rule="evenodd" d="M10.8027 94.5443L13.2056 94.5632L11.1043 99.6138L16.4188 93.3382L14.5813 93.3099L16.9653 87.7363H12.8475L10.8027 94.5443Z" fill="#AFDCF2"/>
<path fill-rule="evenodd" clip-rule="evenodd" d="M56.975 22.53H64.2495L56.7536 39.1991H67.2554L49.2954 65.5548L54.2 46.53H45.2012L56.975 22.53Z" fill="#151616"/>
<path fill-rule="evenodd" clip-rule="evenodd" d="M72.6166 66.9964C78.2373 66.9069 85.3374 64.4475 85.0076 57.7997C84.6967 58.7938 84.7344 59.4345 84.2208 60.4663C83.0807 62.7467 81.1725 64.0706 78.5671 64.9234C75.1419 66.0305 72.1219 65.7903 69.0123 65.451C68.4658 65.4086 67.9005 65.3427 67.3304 65.2626L66.4211 65.1731V65.1259C65.3563 64.9516 64.3151 64.7396 63.4199 64.5417C62.5249 64.3789 61.6407 64.1618 60.7721 63.8916H60.7391C51.3633 61.027 36.3056 51.5382 30.8498 45.1024C30.3787 44.57 29.2432 43.0152 28.4564 41.9222C27.4893 40.6189 26.6439 39.2294 25.9311 37.7714C25.0619 36.0952 24.476 34.2867 24.1973 32.4192C23.6319 27.7078 26.0818 24.848 29.2385 23.4675C33.4788 21.6112 39.1655 21.974 44.103 22.9964L44.2255 22.4687C40.3138 21.3961 36.2593 20.9368 32.2067 21.1071C21.0877 21.7573 18.4164 29.3804 22.9676 38.007C23.1843 38.4122 23.5565 39.0671 24.0041 39.7926C24.3999 40.4381 24.8522 41.1448 25.2903 41.7997C25.2903 41.7997 29.1867 46.5111 30.6708 47.9811C40.8663 57.8421 58.1996 67.232 72.6166 66.9964Z" fill="#AFDCF2"/>
<path fill-rule="evenodd" clip-rule="evenodd" d="M57.7797 14.172C54.0812 9.93175 47.636 6.1155 42.755 10.6432C43.6972 10.2427 44.1684 9.79512 45.2991 9.52657C47.7773 8.92351 50.0106 9.52657 52.3663 10.9824C55.424 12.867 57.1908 15.3452 58.934 17.9412C59.2544 18.3841 59.57 18.8835 59.8763 19.3546L60.3945 20.1084H60.3568C60.9128 21.0507 61.4216 21.993 61.8457 22.7798C62.2997 23.5673 62.7041 24.3824 63.0565 25.2203V25.2533C66.9199 34.2663 69.3839 51.8917 67.9893 60.2121C67.8904 60.9188 67.4334 62.7892 67.1036 64.0943C66.7353 65.675 66.2195 67.2177 65.563 68.7021C64.8384 70.4356 63.8341 72.0384 62.5901 73.4465C59.3533 76.9282 55.5936 76.8952 52.4982 75.3734C48.338 73.324 44.9599 68.7775 42.5571 64.3157L42.0859 64.5654C43.7888 68.2544 46.0555 71.6559 48.8044 74.6479C56.4652 82.7091 64.0082 79.8305 67.6501 70.7845C67.8197 70.3605 68.0789 69.6491 68.3474 68.8387C68.583 68.1226 68.8186 67.3216 69.0447 66.5631C69.0447 66.5631 70.1378 60.5419 70.298 58.4689C71.2732 44.3346 67.2638 25.0366 57.7797 14.172Z" fill="#AFDCF2"/>
<path fill-rule="evenodd" clip-rule="evenodd" d="M27.6844 52.622C24.9376 57.5313 23.5101 64.8717 29.4182 67.9576C28.7162 67.1897 28.1367 66.9023 27.5054 65.9364C26.0919 63.8069 25.9176 61.4889 26.5018 58.7939C27.2604 55.2745 28.9895 52.7821 30.8458 50.2662C31.1567 49.7951 31.4912 49.3569 31.8493 48.9046L32.3864 48.165L32.4194 48.1932C33.1072 47.3593 33.8328 46.5631 34.4359 45.8893C35.024 45.1986 35.6533 44.5441 36.3204 43.9294L36.344 43.9011C43.5289 37.225 59.298 28.9753 67.5996 27.4912C68.2969 27.3452 70.2144 27.1473 71.5525 27.0201C73.1667 26.8383 74.7943 26.8052 76.4147 26.9211C78.2902 27.0209 80.1366 27.4283 81.8799 28.1273C86.2474 30.0118 87.4818 33.5548 87.0907 36.9847C86.5631 41.5925 83.397 46.3181 80.0236 50.0684L80.4194 50.4359C83.3286 47.5835 85.775 44.2946 87.6702 40.6879C92.6832 30.7939 87.4394 24.6691 77.6867 24.2498C77.2156 24.2498 76.4759 24.2498 75.6231 24.2498C74.8646 24.2498 74.0307 24.3016 73.2439 24.3534C73.2439 24.3534 67.2038 25.3522 65.1968 25.8988C51.5478 29.7668 34.7233 40.0377 27.6844 52.622Z" fill="#AFDCF2"/>
</svg>
