<svg width="1847" height="724" viewBox="0 0 1847 724" fill="none" xmlns="http://www.w3.org/2000/svg">
<path fill-rule="evenodd" clip-rule="evenodd" d="M1732.07 360.117C1831.57 266.527 1910.27 109.193 1773.16 0.788388C1787.19 22.777 1800.72 33.0629 1811.79 59.0838C1836.75 116.596 1828.24 170.339 1797.78 227.712C1758.11 302.667 1698.85 348.007 1636.12 393.057C1625.34 401.731 1614.12 409.504 1602.21 417.444L1583.99 430.745L1583.29 429.89C1560.6 444.351 1537.14 457.711 1517.57 469.087C1498.3 480.945 1478.15 491.714 1457.24 501.334L1456.47 501.823C1230.96 606.695 772.09 691.543 546.637 671.323C527.579 670.111 476.319 662.151 440.611 656.35C397.373 649.993 354.624 640.176 312.905 627.024C264.42 612.582 218.432 591.344 176.783 564.161C73.191 493.028 60.8781 404.598 90.4343 329.29C130.201 228.134 239.628 141.437 348.979 78.2223L340.701 67.3116C248.547 113.161 166.037 171.923 96.1499 241.476C-90.7013 433.488 11.9097 606.552 264.584 679.395C276.904 682.455 296.248 687.258 318.548 692.795C338.385 697.72 360.484 701.959 381.352 705.892C381.352 705.892 544.931 722.441 600.497 723.069C979.226 723.903 1477.08 600.033 1732.07 360.117Z" fill="#EFF8FC"/>
</svg>
