<svg width="82" height="68" viewBox="0 0 82 68" fill="none" xmlns="http://www.w3.org/2000/svg">
<path fill-rule="evenodd" clip-rule="evenodd" d="M17.319 32.0616C17.2755 32.6508 17.2641 33.1206 17.2865 33.4698C17.33 35.1523 16.8056 36.3316 15.7123 37.0085C15.4277 37.1831 15.0456 37.3253 14.5642 37.4345C13.8202 37.6311 13.3937 37.8061 13.2843 37.9588C12.9567 38.1988 12.7924 38.734 12.7924 39.5646C12.7924 39.9357 13.0331 40.8311 13.5141 42.2508C13.8856 43.4301 14.0389 44.5549 13.973 45.626C14.1043 45.5167 14.2791 45.2982 14.4979 44.9705L15.5805 43.5289C15.7993 43.3543 16.3681 42.9831 17.2864 42.415C17.4397 42.3496 17.5161 42.1746 17.5161 41.8907L17.3843 41.4318C17.2749 41.126 17.2205 40.8531 17.2205 40.6127C17.2205 40.0446 17.4172 39.5971 17.8108 39.2694C18.2478 38.8978 18.9154 38.7122 19.8118 38.7122C20.9924 38.7122 22.097 39.455 23.1243 40.9405L23.1567 41.0059C23.9003 42.0763 24.4906 42.6555 24.9281 42.7428L25.6822 42.3168C26.2505 41.9891 26.7099 41.7925 27.06 41.7276C27.1913 41.6833 27.3446 41.6618 27.5194 41.6618C27.869 41.6618 28.1861 41.7605 28.4703 41.9566C28.8204 42.1746 29.1484 42.5248 29.4541 43.0056C29.8476 43.6391 30.1432 43.9883 30.34 44.0537L32.0784 44.2827C33.1935 44.5016 33.9157 44.9496 34.2432 45.6265C34.5493 46.2157 35.5001 46.8057 37.0967 47.3954C38.5404 47.9192 39.6775 48.1811 40.5085 48.1811C40.8581 48.1811 41.6781 48.0942 42.9685 47.9192H43.0673C43.2856 47.9192 43.756 47.9955 44.4771 48.1482C45.0894 48.2793 45.5154 48.3447 45.7566 48.3447C45.9757 48.3447 46.1171 48.2026 46.183 47.9192C46.4233 47.0013 46.9371 46.5429 47.7242 46.5429C48.0957 46.5429 48.8169 46.7394 49.889 47.133C50.8078 47.4822 51.6278 47.6572 52.349 47.6572C53.6394 47.6572 54.5029 47.6138 54.9403 47.5261C55.7058 47.3514 56.0884 47.0237 56.0884 46.5433C56.0884 46.3253 55.8806 45.9541 55.4651 45.4294C54.8533 44.6871 54.5472 44.0426 54.5472 43.4968C54.5472 43.191 54.6895 42.9397 54.9732 42.7431L55.0391 42.6777L55.3672 42.5466C55.6953 42.4154 55.9246 42.35 56.0559 42.35C56.4709 42.35 56.8434 42.3825 57.171 42.4478C58.4171 42.6 59.204 43.1353 59.5322 44.0527C59.7729 44.5984 59.9806 44.8718 60.1554 44.8718C60.3956 44.8718 60.7452 44.7625 61.2046 44.544C61.8389 44.1948 62.4077 44.0197 62.9105 44.0197C63.7415 44.0197 64.5061 44.4343 65.2067 45.2644C65.6437 45.8111 66.0592 46.2805 66.4528 46.6736L66.5516 46.4112C66.661 46.0835 66.7154 45.8655 66.7154 45.7558C66.7154 43.8996 66.5077 42.4909 66.0922 41.5296L65.8629 41.1361C65.2722 40.285 64.1351 39.859 62.4516 39.859C61.5547 39.859 60.8551 39.619 60.3522 39.1386C59.8493 38.6363 59.5976 37.9374 59.5976 37.0415C59.5976 36.5392 59.7509 36.0044 60.057 35.4358C60.4291 34.7803 60.9095 34.1253 61.5002 33.4698C62.5495 32.3998 63.0747 31.7228 63.0747 31.4386C63.0747 31.1544 62.9544 30.7287 62.7133 30.1606C62.4076 29.4617 62.2547 28.894 62.2547 28.457C62.2547 27.9546 62.484 27.5392 62.9434 27.2119C63.315 26.9719 63.6646 26.8517 63.9927 26.8517C64.2988 26.8517 64.5505 27.0263 64.7472 27.3759C64.922 27.7252 65.1847 28.5228 65.5348 29.7678C65.9283 31.2094 66.4422 32.0939 67.0764 32.4217H69.2082V32.0939C67.9617 30.7181 66.9999 29.3857 66.3217 28.0972L65.8632 27.0811C65.272 25.5523 65.196 24.1983 65.6326 23.0186C65.677 22.407 65.5456 21.9371 65.239 21.6094C64.6703 21.1505 64.1129 20.6481 63.5666 20.1024C62.9763 19.5127 62.6153 18.6937 62.4839 17.6456C62.0904 17.9075 61.7294 18.1804 61.4013 18.4647C60.4399 19.2947 59.9586 20.0371 59.9586 20.692C59.9586 20.9763 60.035 21.5769 60.1878 22.4938L60.2203 22.5925C60.2203 23.5972 59.6305 24.3294 58.449 24.7874L57.4981 25.0822C56.6891 25.2569 56.0763 25.4424 55.6608 25.6394L55.3003 25.9013C55.0165 26.6441 54.2835 27.7141 53.1029 29.1123L52.8402 29.44C52.206 30.2481 51.7251 30.7833 51.397 31.0458C51.1788 31.2204 50.96 31.3077 50.7408 31.3077C50.3258 31.3077 49.9867 31.1765 49.7241 30.9146C49.396 30.5654 49.2322 30.0078 49.2322 29.244H48.97L47.4608 30.4887C46.477 31.3402 45.6465 31.7667 44.9684 31.7667C44.5309 31.7667 44.1484 31.6031 43.8203 31.2753C43.5366 30.9261 43.3943 30.533 43.3943 30.0961C43.3943 29.506 43.5581 29.0804 43.8862 28.8181L43.9521 28.6864C43.4711 28.7522 42.6073 29.0142 41.3607 29.4731L40.5737 29.8008C40.0054 30.0412 39.5899 30.2812 39.3272 30.5211L39.0975 30.7835L39.2283 31.2095C39.3377 31.5587 39.3921 31.843 39.3921 32.061C39.3921 32.4541 39.2613 32.8477 38.9986 33.2403C38.9108 33.3934 38.7689 33.4912 38.5721 33.5351C38.3763 33.5795 38.212 33.5465 38.0807 33.4373C37.8624 33.3061 37.5778 33.0442 37.2282 32.6507C37.1847 32.6072 37.1408 32.5853 37.0969 32.5853C37.0534 32.6072 36.9985 32.6621 36.9331 32.7489C36.8237 32.9455 36.7038 33.2293 36.5725 33.6005C36.1355 34.8895 35.4574 35.5335 34.539 35.5335C34.1674 35.5335 33.8613 35.4133 33.6206 35.1733C33.3584 34.9329 33.2051 34.6052 33.1612 34.1906L33.1283 34.0924C33.1717 33.4154 33.1717 32.8911 33.1283 32.5199C33.1283 31.3841 32.2099 30.8484 30.3731 30.9142C28.711 30.9795 27.3557 30.7505 26.306 30.2263C25.475 29.7673 24.8847 29.1667 24.5347 28.4245C24.1851 28.5113 23.846 28.5552 23.5179 28.5552C23.2992 28.5552 22.8182 28.4355 22.0747 28.195L21.025 27.8673C19.801 27.8673 18.8602 28.3696 18.2044 29.3743C17.745 30.0956 17.4499 30.991 17.3185 32.0615L17.319 32.0616ZM16.0071 31.9304C16.1819 30.598 16.5539 29.5055 17.1222 28.654C17.9972 27.2563 19.3091 26.5569 21.0585 26.5569C21.2333 26.5569 21.7037 26.6881 22.4688 26.9505L23.5185 27.2448C23.89 27.2448 24.1307 27.2014 24.2401 27.1141L24.5682 26.8842C25.2678 25.7483 25.9895 25.1806 26.733 25.1806C27.17 25.1806 27.7168 25.5083 28.373 26.1633C28.4823 26.2945 28.5368 26.4581 28.5368 26.6547C28.5368 26.8293 28.4709 26.9824 28.34 27.1136C28.2087 27.2224 28.0554 27.2772 27.8806 27.2772C27.6838 27.2772 27.531 27.2114 27.4212 27.0802L26.7 26.491C26.4593 26.513 26.1093 26.8841 25.6503 27.6049C25.8471 28.2385 26.2731 28.7184 26.9293 29.0461C27.7603 29.483 28.8974 29.6686 30.3406 29.6033C32.9644 29.494 34.3312 30.4333 34.4406 32.4207C34.4841 32.8353 34.4841 33.3819 34.4406 34.0589L34.5065 34.2225C34.8126 34.2225 35.0858 33.8733 35.3265 33.1744C35.7855 31.9074 36.3762 31.2739 37.0973 31.2739C37.4254 31.2739 37.7096 31.3607 37.9503 31.5363C37.8409 31.1647 37.7865 30.9137 37.7865 30.7825C37.7865 29.9959 38.5301 29.2645 40.0168 28.5876L40.8692 28.2599C42.4438 27.6698 43.493 27.375 44.0179 27.375C44.2806 27.375 44.5977 27.4294 44.9693 27.5386C45.3198 27.6478 45.4612 27.8878 45.3957 28.2599C45.3079 28.8934 45.1221 29.3848 44.8379 29.7345L44.74 29.7998L44.7075 30.0946C44.7075 30.2258 44.7295 30.3127 44.773 30.3566C44.8384 30.4224 44.9043 30.4553 44.9697 30.4553C45.3202 30.4553 45.8661 30.1385 46.6097 29.505C46.8724 29.2431 47.178 28.9807 47.5286 28.7184C48.0315 28.3038 48.381 28.0524 48.5778 27.9651L48.808 27.9326H49.9227C50.0984 27.9326 50.2622 28.009 50.4146 28.1616C50.5683 28.3148 50.6223 28.4894 50.5784 28.6859L50.5459 29.1773C50.5459 29.505 50.5784 29.7674 50.6447 29.9639C50.9943 29.6147 51.3883 29.1668 51.8253 28.6206L52.0879 28.2929C53.1592 26.9825 53.8149 26.0212 54.0561 25.4096C54.3398 24.7107 55.39 24.1649 57.2048 23.7714L57.9923 23.5748C58.5386 23.3568 58.8447 23.0401 58.9102 22.6246C58.7354 21.7077 58.648 21.0631 58.648 20.6915C58.648 19.6434 59.2708 18.5733 60.5172 17.4809C61.3047 16.8254 62.0259 16.3451 62.682 16.0393L62.8788 15.9406C63.1195 15.8318 63.3272 15.8537 63.502 16.0064C63.6979 16.1166 63.7967 16.3021 63.7967 16.564V17.3178C63.8187 18.1044 64.0484 18.726 64.4854 19.1849C65.1631 19.8185 65.7104 20.2988 66.1254 20.6265L66.1913 20.6919C66.8031 21.3688 67.0438 22.2104 66.9124 23.2149L66.8799 23.3786C66.5519 24.2955 66.6173 25.3659 67.0767 26.5892L67.5032 27.507C68.1374 28.7521 69.0882 30.041 70.3567 31.3735C70.466 31.5257 70.5205 31.6792 70.5205 31.8315V33.0766C70.5205 33.2512 70.455 33.4043 70.3237 33.5355C70.1924 33.6667 70.0395 33.732 69.8643 33.732H66.9449L66.6827 33.6667C65.589 33.2297 64.78 32.0395 64.2551 30.0955C64.0144 29.1776 63.8286 28.577 63.6973 28.2937C63.6104 28.359 63.5664 28.4134 63.5664 28.4573C63.5664 28.6973 63.6863 29.1018 63.927 29.6695C64.2331 30.4122 64.3864 31.0128 64.3864 31.4712C64.3864 32.0828 63.7522 33.055 62.4838 34.3874C61.893 34.999 61.478 35.5452 61.2373 36.0256C61.019 36.3968 60.9092 36.7354 60.9092 37.0412C60.9092 37.587 61.0295 37.9696 61.2707 38.1881C61.5109 38.4285 61.9049 38.5482 62.4512 38.5482C64.5941 38.5482 66.0918 39.1708 66.9447 40.4163L67.2728 40.9731C67.7757 42.1089 68.0274 43.7147 68.0274 45.7898C68.0274 45.9863 67.9505 46.3246 67.7972 46.8054C67.6664 47.1985 67.6005 47.5153 67.6005 47.7557C67.6005 47.9303 67.535 48.0834 67.4037 48.2137C67.2724 48.3449 67.1191 48.4107 66.9443 48.4107H66.6821C66.5507 48.4107 66.4194 48.3664 66.2881 48.2795C65.8287 47.9518 65.129 47.2305 64.1887 46.1171C63.7736 45.5924 63.3467 45.3305 62.9102 45.3305C62.6255 45.3305 62.254 45.4502 61.795 45.6907C61.1388 46.0184 60.5924 46.182 60.155 46.182C59.324 46.182 58.7118 45.6253 58.3182 44.5114C58.1434 44.0959 57.695 43.8345 56.9729 43.7248L56.0884 43.6599L55.9246 43.7252C55.99 43.9218 56.1763 44.2166 56.482 44.6097C57.0942 45.3739 57.4003 46.0184 57.4003 46.5427C57.4003 47.722 56.6682 48.4758 55.203 48.8034C54.5907 48.9127 53.6393 48.9671 52.349 48.9671C51.518 48.9671 50.5452 48.7705 49.4296 48.377C48.4673 48.0278 47.899 47.8527 47.7241 47.8527C47.6152 47.8527 47.5273 47.9839 47.4614 48.2462C47.2212 49.1851 46.6529 49.6545 45.756 49.6545C45.5368 49.6545 45.0229 49.5782 44.2148 49.4255C43.5371 49.3163 43.1647 49.2509 43.0997 49.229C41.7878 49.4036 40.9239 49.4909 40.5084 49.4909C39.4806 49.4909 38.1907 49.2075 36.6381 48.6393C34.7134 47.919 33.5218 47.1104 33.0629 46.2145C32.932 45.9311 32.5275 45.7231 31.8494 45.5919L30.0456 45.33C29.4993 45.1769 28.9415 44.6421 28.3732 43.7242C28.1545 43.375 27.9467 43.1561 27.7499 43.0688C27.6625 43.0034 27.5861 42.9701 27.5207 42.9701L27.3235 43.0034C27.0173 43.1122 26.6897 43.2653 26.3397 43.4614L25.3888 43.9862C25.3229 44.0296 25.225 44.0515 25.0936 44.0515C24.1313 44.0515 23.1365 43.2978 22.1089 41.7908L22.01 41.6272C21.2664 40.5572 20.5338 40.0214 19.8126 40.0214C19.2658 40.0214 18.8723 40.1092 18.6316 40.2838C18.5657 40.3492 18.5332 40.4584 18.5332 40.6115L18.6316 41.0375C18.7629 41.474 18.8288 41.7579 18.8288 41.8891C18.8288 42.6538 18.5442 43.1995 17.9759 43.5272L16.5332 44.4441L15.5805 45.7236C15.0336 46.5751 14.4434 47.0016 13.8091 47.0016C13.5909 47.0016 13.3937 46.9691 13.2188 46.9029L13.1205 46.8704C12.9672 46.827 12.8473 46.7506 12.7599 46.6414C12.6066 46.4883 12.5522 46.3137 12.5961 46.1171C12.7709 45.0247 12.6615 43.8673 12.268 42.6437C11.7427 41.0494 11.4805 40.0224 11.4805 39.5644C11.4805 38.3408 11.7976 37.4673 12.4318 36.9435C12.8253 36.6373 13.4376 36.3749 14.2686 36.1569C14.5308 36.0911 14.7825 35.9933 15.0227 35.8621C15.7009 35.469 16.0175 34.6828 15.974 33.5036C15.9521 33.1315 15.9635 32.6072 16.007 31.9303L16.0071 31.9304ZM35.8839 26.6881L32.932 28.7193C32.8442 28.8071 32.7243 28.8505 32.571 28.8505C32.3303 28.8505 32.1445 28.7527 32.0132 28.5557C31.9258 28.4035 31.8928 28.2394 31.9148 28.0643C31.9368 27.9121 32.0242 27.7809 32.177 27.6712L35.1289 25.607C35.2822 25.4982 35.446 25.4649 35.6208 25.5092C35.7956 25.5526 35.9379 25.6513 36.0473 25.804C36.1566 25.9562 36.1891 26.1203 36.1456 26.2954C36.1241 26.47 36.0372 26.6012 35.8839 26.688V26.6881ZM44.51 24.8209C44.5534 24.9955 44.5319 25.1701 44.4445 25.3452C44.3791 25.4983 44.2587 25.5961 44.0839 25.64L42.5419 26.1314L42.3451 26.1638C42.0394 26.1638 41.8312 26.0002 41.7219 25.6725C41.6784 25.5193 41.6999 25.3557 41.7878 25.1811C41.8532 25.028 41.9735 24.9187 42.1483 24.8534L43.6895 24.3944C43.8652 24.351 44.0391 24.3725 44.2148 24.4598C44.3676 24.5256 44.4665 24.6454 44.5099 24.8209L44.51 24.8209ZM53.6613 23.8048C53.6393 24.0018 53.5524 24.144 53.3991 24.2308L51.9228 25.3776C51.835 25.4645 51.7036 25.5088 51.5288 25.5088C51.2886 25.5088 51.1129 25.4211 51.004 25.2464C50.8951 25.1153 50.8507 24.9631 50.8727 24.7875C50.8951 24.591 50.982 24.4383 51.1353 24.3295L52.6116 23.2156C52.9396 22.9533 53.2458 22.9857 53.5295 23.3134C53.6398 23.4661 53.6832 23.6297 53.6613 23.8048L53.6613 23.8048ZM67.0109 37.5655C67.1417 37.4348 67.2946 37.38 67.4694 37.4019C67.6666 37.4019 67.8199 37.4677 67.9288 37.5989L69.2407 39.0735C69.35 39.2042 69.4045 39.3569 69.4045 39.5315C69.3825 39.7285 69.3066 39.8807 69.1752 39.9904C69.0659 40.0997 68.9236 40.1541 68.7488 40.1541C68.552 40.1541 68.3882 40.0887 68.2569 39.9575L66.945 38.4829C66.6828 38.1337 66.7048 37.8279 67.0109 37.5656L67.0109 37.5655Z" fill="white"/>
</svg>
